<?xml version="1.0" encoding="iso-8859-1"?>
<!-- Uploaded to: SVG Repo, www.svgrepo.com, Generator: SVG Repo Mixer Tools -->
<svg height="800px" width="800px" version="1.1" id="Layer_1" xmlns="http://www.w3.org/2000/svg" xmlns:xlink="http://www.w3.org/1999/xlink" 
	 viewBox="0 0 512 512" xml:space="preserve">
<path id="SVGCleanerId_0" style="fill:#47CEAC;" d="M0,256.006C0,397.402,114.606,512.004,255.996,512
	C397.394,512.004,512,397.402,512,256.006C512.009,114.61,397.394,0,255.996,0C114.606,0,0,114.614,0,256.006z"/>
<g>
	<path id="SVGCleanerId_0_1_" style="fill:#47CEAC;" d="M0,256.006C0,397.402,114.606,512.004,255.996,512
		C397.394,512.004,512,397.402,512,256.006C512.009,114.61,397.394,0,255.996,0C114.606,0,0,114.614,0,256.006z"/>
</g>
<path style="fill:#36BB9A;" d="M512,256.005c0.001-24.625-3.546-48.409-10.034-70.945c-0.013-0.012-0.023-0.026-0.036-0.036
	c-0.461-0.531-72.124-72.193-72.654-72.654c-0.461-0.531-0.954-1.023-1.485-1.485c-2.739-3.152-6.73-5.19-11.223-5.19H306.922
	l-20.299-13.662c-22.065-14.853-27.308-18.385-39.055-6.526c-0.423,0.435-0.802,0.915-1.108,1.44l-19.09,32.119
	c-4.535,7.62-4.491,17.005,0.102,23.917c0.385,0.583,0.802,1.146,1.239,1.681l-41.25,76.362
	c-8.633,10.769-17.091,17.259-24.958,19.25c-3.5,0.784-7.044,1.488-10.595,2.194c-11.47,2.287-23.333,4.645-34.512,9.75
	c-28.489,13.008-37.712,44.177-36.845,69.011c0.532,15.264,6.606,28.621,17.577,38.985c0.492,0.499,150.73,150.759,151.243,151.244
	c0.126,0.128,0.255,0.253,0.382,0.382c2.082,0.051,4.149,0.158,6.242,0.158C397.394,512.004,512,397.401,512,256.005z"/>
<path style="fill:#F4F6F9;" d="M416.569,105.695H306.922l-20.299-13.661c-22.065-14.853-27.308-18.386-39.054-6.526
	c-0.422,0.434-0.802,0.915-1.108,1.44l-19.089,32.119c-4.535,7.62-4.492,17.004,0.102,23.917c0.386,0.583,0.802,1.145,1.239,1.681
	l-41.249,76.362c-8.634,10.77-17.091,17.26-24.959,19.25c-3.5,0.784-7.044,1.488-10.595,2.195
	c-11.47,2.286-23.333,4.644-34.511,9.749c-28.489,13.008-37.712,44.177-36.845,69.012c0.598,17.172,8.174,31.952,21.889,42.743
	c12.775,10.051,29.808,15.55,46.893,15.55c5.206,0,10.413-0.511,15.509-1.556c8.495-1.746,17.062-4.065,25.084-6.778l35.057-9.758
	c-3.045,24.766,8.432,50.07,30.809,64.183c0.219,0.134,1.036,0.555,1.262,0.663c9.924,4.914,20.541,7.317,31.055,7.317
	c16.924,0,33.6-6.223,46.79-18.214l56.948-51.771c15.707-14.273,24.719-34.639,24.719-56.317V180.825
	c0.86-0.221,1.758-0.592,2.662-1.001c0.132-0.05,0.261-0.089,0.389-0.146c3.387-1.635,7.025-4.7,10.627-10.108
	c0.817-1.229,1.254-2.669,1.254-4.142v-44.8C431.502,112.393,424.801,105.695,416.569,105.695z M416.569,163.037
	c-0.913,1.181-1.633,1.89-2.228,2.391H284.387c-0.594-0.507-1.311-1.218-2.219-2.391v-42.409h134.4L416.569,163.037L416.569,163.037
	z M229.362,344.533l-0.124,0.329c-0.186,0.037-0.368-0.011-0.555,0.041l-6.407,1.785c-1.666-8.012-3.761-26.439,7.21-42.676
	c6.65-9.847,15.232-16.384,25.514-19.422c9.14-2.698,17.251-1.89,23.117-0.505c-0.833,1.814-1.774,3.567-2.853,5.222
	c-0.751,1.155-3.69,4.313-9.493,9.41c-2.975,2.61-5.841,5.327-8.641,8.123l-7.773,7.777
	C240.277,323.691,233.548,333.753,229.362,344.533z M240.205,126.699l18.623-31.332c0.715-0.718,1.451-1.444,1.977-1.889
	c2.618,0.941,9.253,5.407,17.478,10.945l2.151,1.447c-7.408,0.873-13.198,7.117-13.198,14.758v31.327l-25.28-15.314
	c-0.117-0.071-0.252-0.069-0.372-0.133c-0.153-0.128-0.239-0.306-0.401-0.425c-0.481-0.357-0.905-0.81-1.276-1.375
	C238.498,132.591,238.615,129.375,240.205,126.699z M185.539,356.923c-7.824,2.636-15.801,4.798-23.698,6.42
	c-17.369,3.566-37.063-0.791-50.166-11.102c-7.081-5.571-15.641-15.564-16.202-31.533c-0.7-20.012,6.322-44.946,28.124-54.902
	c9.596-4.382,20.103-6.471,31.23-8.688c3.667-0.73,7.328-1.458,11.141-2.315c11.434-2.891,22.742-11.302,33.6-25.003
	c0.277-0.339,0.517-0.704,0.722-1.09l40.635-75.227l28.447,17.234c3.313,4.624,6.636,7.459,9.747,8.961
	c0.127,0.059,0.256,0.096,0.386,0.146c0.905,0.41,1.803,0.78,2.663,1.001v84.095c0,1.577-0.166,3.108-0.31,4.644
	c-7.777-1.871-18.785-2.945-31.095,0.705c-9.413,2.782-22.889,9.446-33.659,25.382c-14.405,21.341-11.587,44.658-9.247,55.054
	L185.539,356.923z M324.853,404.336c-16.8,15.268-40.826,18.63-61.702,8.269c-20.235-12.764-28.941-38.187-20.708-60.445
	l0.838-2.227c3.435-8.827,9.027-17.157,16.633-24.758l7.773-7.773c2.566-2.566,5.199-5.065,7.934-7.459
	c9.406-8.266,11.477-11.441,12.156-12.483c6.103-9.366,9.326-20.618,9.326-32.539v-84.558h104.533v75.424
	c-11.02,1.716-29.663,7.169-43.218,24.508c-22.393,28.635-10.033,63.179-8.546,67.025c3.099,8.036,7.751,15.326,13.69,21.826
	L324.853,404.336z M381.802,352.562l-7.205,6.55c-4.691-5.136-8.362-10.871-10.798-17.171c-1.167-3.037-10.938-30.297,6.387-52.449
	c9.636-12.329,22.695-16.852,31.449-18.541v36.791C401.635,324.773,394.409,341.11,381.802,352.562z"/>
</svg>