<?xml version="1.0" encoding="utf-8"?>
<!-- Generator: Adobe Illustrator 27.5.0, SVG Export Plug-In . SVG Version: 6.00 Build 0)  -->
<svg version="1.1" id="Capa_2" xmlns="http://www.w3.org/2000/svg" xmlns:xlink="http://www.w3.org/1999/xlink" x="0px" y="0px"
	 viewBox="0 0 2122 2122" style="enable-background:new 0 0 2122 2122;" xml:space="preserve">
<g>
	<path style="fill:#5678BB;" d="M1582.025,349.644c-3.35-18.424-3.396-64.964-2.547-111.245c0.427-23.26-22.419-29.742-45.253-30.44
		h-0.011c-1.979-0.06-3.953-0.068-5.914-0.049l-0.929,0.01c-1.979,0.031-3.944,0.091-5.872,0.186h-0.003
		c-17.638,0.875-32.458,4.137-32.458,4.137l-16.536,2.234l-1.366,0.184l-24.833,3.355l-8.889,1.201l-41.46,5.6l-6.636,0.897
		l-35.119,4.743l-3.784,0.511l-25.633,3.463c-4.006,0.676-8.008,1.304-12.012,1.951c-4.105,0.663-8.211,1.335-12.314,1.971
		c-9.921,1.537-19.836,2.983-29.75,4.378c-4.043,0.57-8.086,1.15-12.128,1.698c-10.361,1.406-20.718,2.736-31.075,4.033
		c-4.093,0.513-8.186,1.034-12.278,1.533c-11.306,1.38-22.61,2.706-33.914,4.015c-2.861,0.333-5.723,0.668-8.585,0.996
		c-12.075,1.386-24.152,2.752-36.229,4.122c-1.742,0.198-3.483,0.395-5.224,0.593c-10.621,1.206-21.244,2.428-31.869,3.667
		c-4.144,0.484-8.288,0.965-12.434,1.457c-11.339,1.347-22.682,2.757-34.028,4.205c-0.001-0.005-0.001-0.01-0.002-0.015
		c-4.091,0.52-8.181,1.034-12.273,1.571c0.001,0.007,0.002,0.015,0.003,0.022c-13.326,1.754-26.66,3.628-40.003,5.601
		c-0.001-0.017-0.002-0.035-0.004-0.053c-4.099,0.606-8.199,1.243-12.299,1.874l-0.059,0.009c-4.041,0.622-8.081,1.226-12.123,1.875
		c-8.357,1.342-16.719,2.648-25.08,3.962c-1.183,0.187-2.366,0.375-3.549,0.56c-3.424,0.537-6.845,1.089-10.27,1.622
		c-1.354,0.152-2.688,0.363-4.004,0.633l-0.996,0.157l-0.477,0.144c-4.297,1.029-8.937,1.982-13.615,3.05l-0.007,0.001
		c-1.976,0.451-3.955,0.927-5.92,1.437l-0.417,0.111c-1.947,0.511-3.88,1.055-5.771,1.654l-0.004,0.002
		c-11.209,3.555-21.038,8.931-24.846,19.222c-9.607,25.961,8.972,68.67,16.081,94.217c5.939,21.342,3.59,52.834,19.797,69.041
		c2.78,2.78,7.039,4.33,12.218,5.066c8.206,156.533,40.482,311.096,72.818,464.667c6.124,29.084,12.251,58.575,15.709,88.128
		c0.436,3.726,0.827,7.453,1.173,11.182l0.023,0.229c0.331,3.595,0.61,7.189,0.847,10.783l0.049,0.641
		c0.219,3.4,0.378,6.8,0.504,10.2l0.057,1.224c0.108,3.234,0.15,6.466,0.165,9.698c0.003,0.565,0.026,1.13,0.026,1.695
		c-0.002,3.038-0.077,6.073-0.167,9.107c-0.023,0.756-0.018,1.514-0.046,2.271c-0.108,2.88-0.296,5.756-0.491,8.634
		c-0.061,0.901-0.088,1.802-0.158,2.704c-0.222,2.862-0.531,5.721-0.846,8.579c-0.1,0.905-0.161,1.811-0.27,2.716
		c-0.454,3.754-0.989,7.503-1.615,11.248c-0.776,4.641-1.735,9.226-2.768,13.785c-10.11,44.579-32.282,85.226-60.892,121.594
		c-12.934,16.442-27.173,31.999-42.214,46.648c-0.46,0.448-0.92,0.894-1.381,1.339c-4.849,4.69-9.77,9.299-14.769,13.797
		c-4.757,4.28-9.552,8.502-14.41,12.608c-40.28,34.038-84.078,63.608-127.04,94.237c-0.013-0.006-0.024-0.014-0.037-0.02
		c-1.679,1.196-3.34,2.414-5.016,3.615c-5.907,4.231-11.79,8.492-17.644,12.79c-3.083,2.263-6.145,4.552-9.209,6.839
		c-4.611,3.443-9.189,6.929-13.748,10.44c-3.227,2.484-6.463,4.959-9.66,7.482c-6.885,5.436-13.71,10.949-20.423,16.604
		c-0.525,0.442-1.074,0.855-1.598,1.298c-36.847,31.219-71.101,67.575-96.407,108.508c-0.025-0.007-0.049-0.015-0.074-0.021
		c-3.727,6.025-7.193,12.179-10.511,18.401c-0.782,1.468-1.553,2.94-2.324,4.413c-0.011-0.003-0.023-0.006-0.033-0.009
		c-0.153,0.297-0.285,0.603-0.437,0.9c-0.216,0.419-0.448,0.831-0.659,1.251c-1.08,2.146-2.086,4.324-3.113,6.492
		c-0.482,1.018-0.991,2.025-1.461,3.048l-0.014,0.029c-0.601,1.308-1.184,2.624-1.766,3.939c-0.934,2.115-1.82,4.25-2.702,6.386
		c-1.029,2.492-2.025,4.996-2.981,7.516c-0.782,2.062-1.543,4.13-2.273,6.209c-0.954,2.715-1.844,5.45-2.71,8.196
		c-0.613,1.943-1.236,3.881-1.802,5.838c-0.904,3.122-1.708,6.277-2.492,9.437c-0.407,1.638-0.858,3.261-1.232,4.909
		c-1.097,4.839-2.079,9.715-2.884,14.644c-13.726,84.073,28.2,181.028,109.014,207.968c3.322,1.107,6.673,2.068,10.04,2.928
		c1.077,0.275,2.163,0.486,3.243,0.737c2.317,0.537,4.636,1.056,6.97,1.483c1.245,0.228,2.495,0.408,3.743,0.606
		c2.214,0.349,4.43,0.674,6.655,0.93c1.257,0.145,2.516,0.266,3.776,0.381c2.272,0.209,4.548,0.375,6.828,0.491
		c1.187,0.061,2.373,0.119,3.563,0.155c2.453,0.075,4.909,0.091,7.368,0.064c1.006-0.01,2.011-0.005,3.018-0.032
		c2.588-0.068,5.176-0.208,7.766-0.382c0.634-0.041,1.267-0.057,1.902-0.107h0.015c0-0.001,0-0.001,0-0.002l0.7-0.053
		c7.241-0.584,14.478-1.558,21.68-2.887h0.001c22.122-4.086,43.895-11.444,64.282-20.72c47.363-21.55,89.594-52.752,134.77-78.571
		c103.918-59.392,221.699-89.437,331.345-137.438c51.983-22.756,103.349-51.213,147.98-86.527c0.028,0.034,0.055,0.069,0.083,0.102
		c3.025-2.392,6.016-4.82,8.976-7.276l0.862-0.727c2.661-2.219,5.297-4.463,7.902-6.735c0.479-0.419,0.95-0.844,1.428-1.263
		c1.175-1.034,2.326-2.087,3.488-3.132l0.005-0.005c1.212-1.087,2.436-2.162,3.634-3.262c0.604-0.554,1.2-1.116,1.8-1.674
		c2.194-2.036,4.368-4.091,6.515-6.168c0.698-0.677,1.389-1.36,2.082-2.042c2.021-1.983,4.022-3.982,5.998-6.002
		c0.763-0.781,1.52-1.568,2.276-2.353c1.87-1.944,3.72-3.904,5.547-5.882c0.813-0.879,1.62-1.764,2.424-2.65
		c1.731-1.909,3.44-3.833,5.13-5.775c0.85-0.975,1.696-1.954,2.536-2.938c1.609-1.887,3.194-3.792,4.764-5.709
		c0.862-1.053,1.722-2.105,2.571-3.166c1.506-1.883,2.985-3.785,4.453-5.698c0.862-1.123,1.726-2.245,2.574-3.377
		c1.409-1.883,2.788-3.79,4.158-5.701c0.851-1.186,1.707-2.368,2.542-3.565c1.324-1.897,2.612-3.819,3.897-5.743
		c0.829-1.242,1.667-2.477,2.479-3.731c1.245-1.921,2.45-3.869,3.656-5.817c0.795-1.285,1.604-2.56,2.38-3.856
		c1.181-1.971,2.317-3.971,3.457-5.97c0.745-1.306,1.508-2.599,2.235-3.917c1.142-2.071,2.233-4.174,3.329-6.273
		c0.666-1.275,1.356-2.535,2.005-3.82c1.165-2.309,2.271-4.655,3.381-7c0.525-1.109,1.079-2.2,1.591-3.317
		c1.593-3.474,3.129-6.983,4.597-10.535c1.722-4.166,3.326-8.379,4.85-12.621c0.497-1.38,0.942-2.781,1.418-4.169
		c0.991-2.89,1.966-5.785,2.872-8.709c0.509-1.642,0.98-3.297,1.462-4.949c0.794-2.72,1.568-5.447,2.292-8.192
		c0.455-1.724,0.89-3.453,1.318-5.185c0.679-2.748,1.324-5.508,1.938-8.28c0.377-1.703,0.753-3.406,1.105-5.118
		c0.604-2.932,1.162-5.882,1.698-8.839c0.28-1.547,0.577-3.089,0.839-4.643c0.591-3.503,1.122-7.027,1.624-10.561
		c0.144-1.016,0.313-2.022,0.449-3.039c0.631-4.69,1.194-9.402,1.678-14.141l0-0.012c0.476-4.659,0.873-9.344,1.217-14.045
		c0.082-1.127,0.142-2.261,0.217-3.39c0.241-3.617,0.457-7.242,0.625-10.882c0.063-1.354,0.11-2.712,0.163-4.067
		c0.137-3.482,0.249-6.972,0.325-10.473c0.029-1.352,0.054-2.706,0.075-4.06c0.055-3.627,0.081-7.261,0.077-10.905
		c-0.001-1.165,0.002-2.328-0.005-3.495c-0.025-4.114-0.085-8.236-0.178-12.368c-0.016-0.675-0.023-1.348-0.04-2.024
		c-0.218-8.7-0.602-17.439-1.078-26.193c-0.006-0.114-0.008-0.229-0.014-0.343l0-0.006c-0.006-0.106-0.014-0.213-0.02-0.318
		c-0.226-4.108-0.482-8.219-0.757-12.334c-0.006-0.099-0.011-0.197-0.018-0.295l0-0.008c-0.003-0.044-0.007-0.086-0.01-0.13
		c-0.476-7.096-0.994-14.198-1.59-21.304c0-0.003,0-0.005,0-0.008l0,0c-5.12-61.049-14.148-122.193-18.126-178.89
		c-15.855-226,26.224-410.822,24.635-625.387l0.158-0.034C1559.028,402.294,1590.517,396.35,1582.025,349.644z"/>
	<path style="fill:#FDCE6D;" d="M1582.025,349.644c-3.35-18.424-3.396-64.964-2.547-111.245c0.427-23.26-22.419-29.742-45.253-30.44
		h-0.011c-1.979-0.06-3.953-0.068-5.914-0.049l-0.929,0.01c-1.979,0.031-3.944,0.091-5.872,0.186h-0.003
		c-17.638,0.875-32.458,4.137-32.458,4.137l-16.536,2.233l-1.366,0.185l-24.833,3.355l-8.889,1.201l-41.46,5.6l-6.636,0.896
		l-35.119,4.744l-3.784,0.511l-25.633,3.463c-4.006,0.676-8.008,1.303-12.012,1.951c-4.105,0.663-8.211,1.335-12.314,1.971
		c-9.921,1.537-19.836,2.983-29.75,4.378c-4.043,0.569-8.086,1.15-12.128,1.698c-10.361,1.407-20.718,2.736-31.075,4.034
		c-4.093,0.513-8.186,1.034-12.278,1.533c-11.306,1.38-22.61,2.706-33.914,4.015c-2.861,0.333-5.723,0.668-8.585,0.996
		c-12.075,1.386-24.152,2.752-36.229,4.122c-1.741,0.197-3.482,0.395-5.224,0.593c-10.621,1.206-21.244,2.428-31.869,3.667
		c-4.144,0.484-8.288,0.965-12.434,1.457c-11.338,1.347-22.682,2.757-34.028,4.205c0-0.005-0.001-0.01-0.002-0.015
		c-4.091,0.52-8.181,1.034-12.273,1.571c0.001,0.007,0.002,0.015,0.003,0.022c-13.326,1.755-26.66,3.628-40.003,5.602
		c-0.001-0.017-0.002-0.035-0.004-0.053c-4.099,0.606-8.199,1.243-12.299,1.874l-0.059,0.009c-4.041,0.622-8.08,1.226-12.123,1.875
		c-8.357,1.342-16.72,2.648-25.081,3.962c-1.183,0.187-2.366,0.375-3.549,0.56c-3.424,0.537-6.845,1.089-10.27,1.622
		c-1.354,0.152-2.688,0.363-4.004,0.633l-0.995,0.157l-0.477,0.145c-4.297,1.029-8.937,1.982-13.615,3.05l-0.007,0.001
		c-1.976,0.451-3.955,0.927-5.92,1.437l-0.417,0.111c-1.947,0.511-3.88,1.055-5.771,1.654l-0.004,0.002
		c-11.209,3.555-21.038,8.931-24.846,19.222c-9.607,25.961,8.972,68.67,16.082,94.217c5.939,21.342,3.589,52.834,19.797,69.041
		c2.78,2.779,7.039,4.33,12.218,5.066c1.496,0.213,3.088,0.34,4.729,0.422c0.001,0.009,0.002,0.02,0.003,0.03
		c0.113,0.005,0.24-0.004,0.353,0.001c1.811,0.079,3.7,0.085,5.66,0.022l0.22-0.011c2.045-0.072,4.154-0.207,6.322-0.402
		c-0.002-0.031-0.005-0.062-0.008-0.094c8.806-0.78,18.362-2.386,27.77-4.214c0,0.001,0,0.002,0,0.002
		c3.183-0.62,6.256-1.234,9.324-1.844c1.033-0.206,2.123-0.42,3.139-0.621c7.544-1.496,14.546-2.817,20.234-3.446
		c19.391-2.144,38.79-4.241,58.188-6.347l0.88-0.096c19.797-2.149,39.593-4.319,59.392-6.462l0.315-0.034
		c10.447-1.131,20.889-2.313,31.335-3.452c0.003,0.016,0.005,0.033,0.007,0.05c4.104-0.446,8.207-0.889,12.311-1.336
		c-0.003-0.023-0.006-0.047-0.009-0.071c10.291-1.126,20.582-2.263,30.873-3.401c0.006,0.023,0.011,0.045,0.017,0.069
		c4.188-0.462,8.373-0.939,12.56-1.403c-0.005-0.016-0.009-0.033-0.013-0.05c9.029-1.002,18.063-1.971,27.091-2.985
		c0,0.004,0.001,0.008,0.001,0.012c2.776-0.312,5.554-0.62,8.331-0.929c1.323-0.148,2.645-0.294,3.967-0.443
		c10.635-1.202,21.268-2.419,31.899-3.646l0.292-0.034c25.154-2.904,50.303-5.84,75.432-8.931c3.434-0.423,6.863-0.891,10.296-1.321
		c1.844-0.231,3.687-0.472,5.53-0.71c2.305-0.297,4.61-0.591,6.915-0.887c0-0.005,0-0.009,0-0.015
		c6.574-0.841,13.146-1.703,19.717-2.573c0,0.019,0,0.04,0,0.059c2.47-0.329,4.937-0.68,7.404-1.026
		c12.9-1.736,25.791-3.533,38.666-5.443l1.079-0.152c3.444-0.512,7.308-1.061,11.483-1.641c8.355-1.161,17.963-2.446,27.984-3.819
		l0.098-0.013c4.055-0.555,8.181-1.128,12.315-1.709l0.166-0.023c10.252-1.442,20.535-2.952,30.072-4.495l0.025-0.004
		c2.134-0.346,4.223-0.694,6.264-1.04l0.125-0.021c2.028-0.346,4.007-0.693,5.935-1.041l0.075-0.012v-0.001
		c5.448-0.984,10.479-1.972,14.789-2.956l0.158-0.034C1559.028,402.294,1590.517,396.35,1582.025,349.644z"/>
	<g>
		<path style="fill:#FDCE6D;" d="M579.808,1596.063c-3.728,6.025-7.194,12.179-10.512,18.401c-0.782,1.468-1.553,2.94-2.324,4.413
			c-0.011-0.003-0.023-0.006-0.033-0.009c-0.153,0.297-0.285,0.603-0.437,0.9c-0.216,0.419-0.448,0.831-0.659,1.251
			c-1.08,2.146-2.086,4.324-3.113,6.492c-0.482,1.018-0.991,2.025-1.461,3.047l-0.014,0.03c-0.601,1.308-1.184,2.624-1.766,3.939
			c-0.934,2.116-1.82,4.25-2.702,6.386c-1.029,2.492-2.025,4.996-2.981,7.516c-0.782,2.062-1.542,4.13-2.273,6.209
			c-0.954,2.715-1.844,5.45-2.71,8.196c-0.613,1.943-1.236,3.881-1.802,5.838c-0.904,3.122-1.708,6.276-2.492,9.437
			c-0.407,1.638-0.858,3.261-1.231,4.909c-1.098,4.839-2.079,9.715-2.884,14.644c-13.726,84.073,28.201,181.028,109.014,207.968
			c3.322,1.107,6.673,2.068,10.04,2.928c1.077,0.275,2.163,0.486,3.243,0.737c2.317,0.537,4.636,1.056,6.97,1.483
			c1.245,0.228,2.494,0.408,3.743,0.606c2.213,0.349,4.43,0.674,6.655,0.93c1.257,0.145,2.516,0.266,3.776,0.381
			c2.272,0.208,4.548,0.375,6.828,0.491c1.187,0.061,2.373,0.119,3.563,0.155c2.453,0.075,4.909,0.091,7.368,0.064
			c1.006-0.01,2.011-0.005,3.018-0.033c2.588-0.068,5.176-0.207,7.766-0.381c0.634-0.041,1.267-0.057,1.902-0.107h0.015
			c0,0,0,0,0-0.001l0.7-0.053c7.241-0.584,14.478-1.558,21.68-2.887h0.001c11.065-27.168,17.211-56.864,17.211-88.007
			C753.908,1713.503,679.995,1622.354,579.808,1596.063z"/>
		<path style="fill:#FDCE6D;" d="M1556.068,1281.938c-0.025-4.114-0.085-8.236-0.178-12.368c-0.016-0.675-0.023-1.347-0.04-2.023
			c-0.221-8.815-0.606-17.667-1.092-26.537l0-0.006c-0.237-4.312-0.505-8.63-0.794-12.948l0-0.008c-0.479-7.142-1-14.289-1.6-21.441
			c-109.214,19.552-192.128,114.958-192.128,229.796c0,57.303,20.673,109.755,54.923,150.388c3.025-2.392,6.016-4.82,8.976-7.276
			l0.862-0.727c2.661-2.219,5.297-4.463,7.902-6.734c0.479-0.419,0.95-0.844,1.428-1.263c1.175-1.034,2.326-2.087,3.488-3.132
			l0.005-0.005c1.212-1.087,2.436-2.162,3.634-3.262c0.604-0.554,1.2-1.116,1.801-1.673c2.194-2.036,4.367-4.091,6.514-6.168
			c0.699-0.677,1.389-1.36,2.082-2.042c2.021-1.983,4.022-3.982,5.998-6.002c0.763-0.781,1.52-1.568,2.276-2.353
			c1.87-1.944,3.72-3.904,5.547-5.882c0.813-0.879,1.62-1.764,2.424-2.65c1.731-1.909,3.44-3.833,5.13-5.775
			c0.85-0.976,1.696-1.954,2.536-2.938c1.609-1.886,3.194-3.792,4.764-5.708c0.862-1.053,1.722-2.105,2.571-3.166
			c1.506-1.883,2.985-3.786,4.453-5.698c0.862-1.123,1.726-2.245,2.574-3.377c1.409-1.883,2.788-3.789,4.158-5.7
			c0.851-1.186,1.707-2.368,2.542-3.565c1.324-1.897,2.612-3.819,3.897-5.743c0.829-1.242,1.667-2.477,2.479-3.731
			c1.245-1.921,2.45-3.869,3.656-5.817c0.795-1.285,1.604-2.56,2.38-3.856c1.181-1.971,2.317-3.971,3.457-5.97
			c0.745-1.306,1.508-2.599,2.235-3.917c1.142-2.071,2.233-4.174,3.329-6.273c0.666-1.276,1.356-2.535,2.005-3.82
			c1.165-2.31,2.271-4.655,3.381-7c0.525-1.109,1.079-2.2,1.591-3.317c1.593-3.474,3.129-6.983,4.597-10.535
			c1.722-4.166,3.326-8.379,4.85-12.621c0.497-1.38,0.942-2.781,1.418-4.169c0.991-2.89,1.966-5.786,2.872-8.709
			c0.509-1.642,0.98-3.297,1.462-4.949c0.794-2.72,1.568-5.447,2.292-8.192c0.455-1.724,0.891-3.453,1.318-5.185
			c0.679-2.748,1.324-5.508,1.938-8.28c0.377-1.703,0.753-3.406,1.105-5.118c0.604-2.932,1.162-5.882,1.698-8.839
			c0.28-1.547,0.577-3.089,0.839-4.643c0.591-3.503,1.122-7.027,1.624-10.561c0.144-1.016,0.313-2.022,0.449-3.039
			c0.631-4.69,1.194-9.402,1.678-14.141l0.001-0.012c0.476-4.659,0.873-9.344,1.216-14.045c0.082-1.127,0.142-2.261,0.217-3.39
			c0.241-3.617,0.457-7.243,0.625-10.882c0.063-1.354,0.11-2.712,0.163-4.067c0.137-3.482,0.249-6.972,0.325-10.473
			c0.029-1.351,0.054-2.705,0.075-4.06c0.055-3.627,0.081-7.261,0.077-10.905
			C1556.072,1284.268,1556.075,1283.104,1556.068,1281.938z"/>
	</g>
	<g>
		<path style="fill:#5678BB;" d="M911.223,1306.547c-0.46,0.448-0.92,0.894-1.381,1.339
			C910.303,1307.44,910.764,1306.995,911.223,1306.547z"/>
		<path style="fill:#F4AC2C;" d="M934.053,481.267c1.917,0.091,3.929,0.092,6.013,0.024l0.22-0.011
			c2.045-0.072,4.154-0.207,6.322-0.402c-4.535-64.219-14.04-128.055-28.417-190.814l-0.007,0.001
			c-1.976,0.451-3.955,0.927-5.92,1.437l-0.417,0.111c-1.947,0.511-3.88,1.055-5.771,1.654l-0.004,0.001
			C920.23,355.125,929.567,417.984,934.053,481.267z"/>
		<path style="fill:#F4AC2C;" d="M974.37,476.572c3.183-0.62,6.256-1.234,9.324-1.844c1.033-0.206,2.123-0.421,3.139-0.622
			c-0.468-64.71-9.503-129.267-26.877-191.609c-2.951,0.467-5.903,0.933-8.855,1.399c-1.183,0.187-2.366,0.375-3.549,0.56
			C965.081,346.986,974.087,411.644,974.37,476.572z"/>
		<path style="fill:#F4AC2C;" d="M1023.453,468.873c4.209-0.462,8.42-0.918,12.629-1.378
			c-19.453-62.085-31.388-126.352-35.419-191.319c-4.099,0.606-8.199,1.243-12.299,1.874l-0.059,0.009
			C992.429,342.804,1004.22,406.937,1023.453,468.873z"/>
		<path style="fill:#F4AC2C;" d="M1052.941,269.034c-4.091,0.52-8.181,1.034-12.273,1.571
			c8.196,64.57,16.391,129.139,24.587,193.709l0.88-0.096c3.808-0.414,7.615-0.833,11.422-1.246
			C1069.352,398.326,1061.146,333.681,1052.941,269.034z"/>
		<path style="fill:#F4AC2C;" d="M1113.439,459.068c4.029-0.436,8.058-0.875,12.088-1.312l0.315-0.034
			c-3.264-65.386-12.131-130.435-26.437-194.335c-4.144,0.484-8.288,0.965-12.434,1.457
			C1101.376,328.723,1110.235,393.699,1113.439,459.068z"/>
		<path style="fill:#F4AC2C;" d="M1157.184,454.32c4.104-0.447,8.207-0.889,12.311-1.336
			c-9.138-64.819-17.756-129.71-25.925-194.659c-2.357,0.267-4.715,0.535-7.072,0.802c-1.742,0.198-3.483,0.395-5.224,0.593
			C1139.444,324.648,1148.055,389.521,1157.184,454.32z"/>
		<path style="fill:#F4AC2C;" d="M1200.375,449.58c4.188-0.461,8.373-0.939,12.56-1.402
			c-17.134-63.493-26.462-128.868-27.749-194.618c-1.292,0.15-2.584,0.299-3.875,0.45c-2.861,0.333-5.723,0.668-8.585,0.996
			C1174.1,320.687,1183.395,386.117,1200.375,449.58z"/>
		<path style="fill:#F4AC2C;" d="M1240.014,445.154c2.776-0.312,5.553-0.62,8.331-0.93c1.323-0.147,2.645-0.293,3.967-0.443
			c-8.27-65.107-16.54-130.213-24.809-195.32c-4.093,0.513-8.186,1.034-12.278,1.533
			C1223.488,315.048,1231.751,380.101,1240.014,445.154z"/>
		<path style="fill:#F4AC2C;" d="M1284.212,440.136L1284.212,440.136l0.291-0.034c4.022-0.466,8.039-0.96,12.061-1.429
			c-5.756-65.653-14.339-131.044-25.674-195.969l-0.185,0.026c-4.043,0.57-8.086,1.15-12.128,1.698
			C1269.932,309.267,1278.496,374.56,1284.212,440.136z"/>
		<path style="fill:#F4AC2C;" d="M1322.268,435.629c4.145-0.492,8.292-0.974,12.436-1.472
			c-1.695-66.411-8.988-132.622-21.934-197.776c-4.105,0.663-8.211,1.335-12.314,1.971
			C1313.419,303.349,1320.656,369.356,1322.268,435.629z"/>
		<path style="fill:#F4AC2C;" d="M1370.232,429.849L1370.232,429.849c1.844-0.231,3.687-0.472,5.53-0.709
			c2.305-0.297,4.61-0.592,6.915-0.887c-0.44-66.779-7.119-133.427-19.893-198.956l-8.585,1.159l-3.784,0.511
			C1363.257,296.476,1369.891,363.059,1370.232,429.849z"/>
		<path style="fill:#F4AC2C;" d="M1402.394,425.724c4.168-0.556,8.33-1.161,12.496-1.733c0.25-66.827-6.124-133.593-18.936-199.176
			l-6.636,0.897l-5.713,0.772C1396.485,292.093,1402.755,358.85,1402.394,425.724z"/>
		<path style="fill:#F4AC2C;" d="M1448.464,419.256L1448.464,419.256l1.079-0.153c3.444-0.512,7.308-1.061,11.483-1.64
			c1.514-66.774-3.431-133.608-14.723-199.448l-8.889,1.201l-3.469,0.468C1445.295,285.563,1450.104,352.436,1448.464,419.256z"/>
		<path style="fill:#F4AC2C;" d="M1489.009,413.644L1489.009,413.644l0.098-0.013c4.055-0.556,8.181-1.129,12.315-1.709l0.166-0.023
			c3.565-66.754-2.558-133.871-18.027-198.916l-11.059,1.494l-1.366,0.184C1486.738,279.752,1492.743,346.829,1489.009,413.644z"/>
		<path style="fill:#F4AC2C;" d="M1529.302,307.117c0.786,33.43,1.572,66.858,2.358,100.287l0.025-0.004
			c2.134-0.345,4.223-0.693,6.264-1.04l0.125-0.021c2.028-0.346,4.007-0.692,5.935-1.041l0.075-0.013v0
			c-0.808-34.371-1.616-68.743-2.424-103.114c-0.73-31.032,0.249-63.808-7.434-94.212h-0.011c-1.979-0.06-3.953-0.068-5.914-0.049
			l-0.929,0.01c-1.979,0.031-3.944,0.09-5.872,0.186h-0.003C1530.373,239.784,1528.544,274.909,1529.302,307.117z"/>
		<path style="fill:#FDCE6D;" d="M1155.297,1528.183c-27.555-10.799-58.649,2.783-69.448,30.339
			c-10.799,27.555,2.784,58.648,30.339,69.448c27.555,10.799,58.648-2.784,69.448-30.339
			C1196.435,1570.076,1182.851,1538.983,1155.297,1528.183z"/>
		<path style="fill:#F4AC2C;" d="M1434.29,1313.686c-37.022,49.094-53.384,112.93-38.894,173.237
			c7.194,29.943,21.736,57.951,42.418,80.735l0.01-0.01c3.086-2.771,6.128-5.582,9.126-8.432
			c-36.553-40.358-51.452-97.696-41.424-151.139c10.917-58.187,47.563-108.85,96.821-140.948
			c16.458-10.725,34.076-19.361,52.411-26.12l0-0.006c-0.237-4.312-0.505-8.629-0.794-12.948l0-0.009
			C1507.01,1244.756,1464.541,1273.57,1434.29,1313.686z"/>
		<path style="fill:#F4AC2C;" d="M712.136,1759.134c-16.775-45.823-48.171-85.554-88.386-113.102
			c-16.168-11.075-36.284-23.365-56.812-27.162c-1.979,3.857-3.863,7.758-5.67,11.69l-0.014,0.03
			c8.291,1.195,16.394,4.341,23.973,7.847c10.082,4.664,19.8,10.118,29.068,16.24c18.636,12.311,35.309,27.512,49.524,44.731
			c30.972,37.517,48.457,84.957,49.759,133.55c0.735,27.426-3.614,54.591-12.638,80.446c1.807-0.013,3.615-0.058,5.424-0.114
			c2.01-0.061,4.022-0.165,6.034-0.294c0.634-0.042,1.267-0.058,1.902-0.107l0.015-0.001
			C730.64,1863.302,730.106,1808.222,712.136,1759.134z"/>
		
			<ellipse transform="matrix(0.9813 -0.1924 0.1924 0.9813 -96.4264 210.1129)" style="fill:#FDCE6D;" cx="1033.383" cy="601.43" rx="53.588" ry="53.589"/>
		<path style="fill:#FDCE6D;" d="M1266.565,899.133c29.596,0,53.589-23.993,53.589-53.589c0-29.596-23.992-53.588-53.589-53.588
			c-29.596,0-53.588,23.992-53.588,53.588C1212.977,875.141,1236.969,899.133,1266.565,899.133z"/>
		<circle style="fill:#FDCE6D;" cx="1447.618" cy="547.841" r="53.589"/>
		<path style="fill:#FDCE6D;" d="M1233.118,622.299c18.157,14.06,44.275,10.739,58.335-7.418
			c14.061-18.157,10.74-44.274-7.417-58.335c-18.157-14.061-44.275-10.74-58.335,7.417
			C1211.64,582.12,1214.961,608.238,1233.118,622.299z"/>
		<path style="fill:#FDCE6D;" d="M1080.771,1086.333c0-29.596-23.992-53.589-53.588-53.589c-3.19,0-6.298,0.331-9.335,0.865v0.001
			c0.436,3.726,0.827,7.453,1.173,11.181l0.023,0.229c0.331,3.594,0.61,7.188,0.847,10.782l0.049,0.641
			c0.219,3.4,0.378,6.801,0.504,10.2l0.057,1.224c0.108,3.234,0.15,6.466,0.165,9.697c0.003,0.566,0.026,1.131,0.026,1.696
			c-0.002,3.037-0.077,6.072-0.167,9.107c-0.023,0.756-0.018,1.514-0.046,2.271c-0.108,2.879-0.296,5.756-0.491,8.633
			c-0.061,0.901-0.088,1.803-0.158,2.703c-0.222,2.862-0.531,5.721-0.846,8.579c-0.1,0.905-0.161,1.812-0.27,2.715
			c-0.454,3.754-0.989,7.504-1.615,11.249c-0.776,4.641-1.735,9.225-2.768,13.784c4.125,1.018,8.414,1.617,12.854,1.617
			C1056.779,1139.921,1080.771,1115.93,1080.771,1086.333z"/>
		
			<ellipse transform="matrix(0.9732 -0.2298 0.2298 0.9732 -198.7174 358.7988)" style="fill:#FDCE6D;" cx="1441.418" cy="1032.745" rx="53.588" ry="53.589"/>
		<path style="fill:#FDCE6D;" d="M1285.253,1099.785c14.061-18.157,10.74-44.275-7.417-58.335
			c-18.157-14.061-44.275-10.739-58.335,7.418c-14.06,18.156-10.74,44.274,7.417,58.335
			C1245.075,1121.263,1271.193,1117.942,1285.253,1099.785z"/>
		<path style="fill:#FDCE6D;" d="M710.96,1526.706c27.555,10.8,58.648-2.784,69.448-30.338
			c10.325-26.344-1.672-55.875-26.823-67.861c-1.679,1.197-3.34,2.415-5.016,3.615c-5.907,4.232-11.79,8.493-17.644,12.791
			c-3.083,2.263-6.145,4.552-9.209,6.839c-4.611,3.443-9.189,6.929-13.748,10.439c-3.227,2.485-6.463,4.959-9.66,7.483
			c-6.885,5.436-13.71,10.949-20.423,16.604l-0.055,0.045C681.041,1504.001,693.004,1519.669,710.96,1526.706z"/>
		<path style="fill:#FDCE6D;" d="M880.156,1691.228c-27.555-10.8-58.648,2.783-69.448,30.339
			c-10.8,27.555,2.784,58.649,30.339,69.448c27.555,10.8,58.648-2.783,69.448-30.338
			C921.295,1733.121,907.712,1702.029,880.156,1691.228z"/>
		<path style="fill:#FDCE6D;" d="M911.809,1503.254c-19.717,11.774-26.155,37.302-14.381,57.019
			c11.775,19.718,37.303,26.156,57.019,14.381c19.717-11.774,26.155-37.302,14.381-57.02
			C957.054,1497.918,931.526,1491.479,911.809,1503.254z"/>
		<path style="fill:#FDCE6D;" d="M951.406,1285.347c2.829-8.496,3.379-17.191,2.039-25.457l-0.008,0.008
			c-12.934,16.442-27.173,31.999-42.214,46.648c-0.46,0.448-0.92,0.893-1.381,1.339c-4.849,4.69-9.77,9.298-14.769,13.797
			l-0.016,0.015C919.512,1324.246,943.317,1309.641,951.406,1285.347z"/>
		<path style="fill:#FDCE6D;" d="M1296.871,1297.599c-28.08-9.35-58.424,5.834-67.773,33.913
			c-9.35,28.08,5.833,58.424,33.913,67.774c28.08,9.35,58.423-5.833,67.774-33.914
			C1340.135,1337.292,1324.952,1306.949,1296.871,1297.599z"/>
		<path style="fill:#FDCE6D;" d="M1110.594,1362.712c19.077-12.785,24.177-38.614,11.392-57.69
			c-12.785-19.078-38.614-24.177-57.691-11.393c-19.077,12.785-24.177,38.614-11.393,57.691
			C1065.688,1370.396,1091.517,1375.497,1110.594,1362.712z"/>
		<path style="fill:#FDCE6D;" d="M1483.623,771.085c-18.157-14.061-44.275-10.74-58.335,7.417
			c-14.061,18.157-10.74,44.274,7.417,58.335c18.157,14.061,44.274,10.74,58.335-7.417
			C1505.101,811.263,1501.78,785.145,1483.623,771.085z"/>
		<path style="fill:#FDCE6D;" d="M1107.842,871.003c14.061-18.157,10.74-44.275-7.417-58.336
			c-18.157-14.06-44.275-10.739-58.335,7.418c-14.061,18.157-10.74,44.274,7.417,58.335
			C1067.664,892.481,1093.781,889.161,1107.842,871.003z"/>
	</g>
</g>
</svg>
